<svg fill="none" height="20" width="20" viewBox="0 0 20 20"  xmlns="http://www.w3.org/2000/svg" role="img" class="w-6 h-6 flex-shrink-0"><path d="m15.3017 9.15016c1.3016 1.30084 1.3016 3.41164 0 4.71334l-4.7142 4.7142c-.325.325-.85333.325-1.17833 0l-4.71417-4.7142c-1.30167-1.3017-1.30167-3.4125 0-4.71417s3.4125-1.30167 4.71417 0l.58833.58917.59-.58917c1.3017-1.30167 3.4125-1.30167 4.7142 0zm-9.42837 1.17664c-.65.6509-.65 1.7067 0 2.3575l4.125 4.125 4.12497-4.125c.65-.6508.65-1.7066 0-2.3575-.6508-.64997-1.7066-.64997-2.3583.0017l-1.76833 1.765-1.76667-1.7667c-.65-.64997-1.70583-.64997-2.35667 0zm4.125-9.493304c1.84167 0 3.33337 1.491664 3.33337 3.333334s-1.4917 3.33333-3.33337 3.33333c-1.84166 0-3.33333-1.49166-3.33333-3.33333s1.49167-3.333334 3.33333-3.333334zm0 1.666664c-.92083 0-1.66666.74584-1.66666 1.66667s.74583 1.66667 1.66666 1.66667c.92087 0 1.66667-.74584 1.66667-1.66667s-.7458-1.66667-1.66667-1.66667z" class="fill-current transition-colors"></path></svg>