<svg fill="none" height="20" width="20" viewBox="0 0 24 24" xmlns="http://www.w3.org/2000/svg" role="img" class="w-6 h-6 flex-shrink-0"><path d="m10.0013 1.6665c4.6025 0 8.3333 3.73084 8.3333 8.33334 0 4.60246-3.7308 8.33336-8.3333 8.33336s-8.33333-3.7309-8.33333-8.33336h1.66667c0 3.68166 2.985 6.66666 6.66666 6.66666 3.6817 0 6.6667-2.985 6.6667-6.66666 0-3.68167-2.985-6.66667-6.6667-6.66667-2.29166 0-4.31333 1.15583-5.5125 2.91667h2.17917v1.66666h-5v-5h1.66667v2.08334c1.52-2.025 3.94083-3.33334 6.66666-3.33334zm.8333 4.16667v3.82083l2.7025 2.7025-1.1791 1.1792-3.19003-3.1917v-4.51083z" class="fill-current transition-colors"></path></svg>