<svg fill="none" height="20" viewBox="0 0 20 20" width="20" xmlns="http://www.w3.org/2000/svg" role="img" class="w-6 h-6 flex-shrink-0 text-blue-900"><path d="m10.0013 18.3332c-4.6025 0-8.33333-3.7309-8.33333-8.33336 0-4.6025 3.73083-8.33334 8.33333-8.33334s8.3333 3.73084 8.3333 8.33334c0 4.60246-3.7308 8.33336-8.3333 8.33336zm0-1.6667c1.7681 0 3.4638-.7024 4.714-1.9526 1.2503-1.2503 1.9527-2.946 1.9527-4.71406 0-1.76811-.7024-3.4638-1.9527-4.71405-1.2502-1.25024-2.9459-1.95262-4.714-1.95262-1.76811 0-3.4638.70238-4.71404 1.95262-1.25025 1.25025-1.95262 2.94594-1.95262 4.71405 0 1.76806.70237 3.46376 1.95262 4.71406 1.25024 1.2502 2.94593 1.9526 4.71404 1.9526zm-2.91666-5h4.58336c.1105 0 .2165-.0439.2946-.122.0781-.0782.122-.1842.122-.2947s-.0439-.2165-.122-.2946-.1841-.122-.2946-.122h-3.33336c-.55254 0-1.08244-.2195-1.47314-.6102-.3907-.39072-.6102-.92063-.6102-1.47316 0-.55254.2195-1.08244.6102-1.47314s.9206-.6102 1.47314-.6102h.83333v-1.66666h1.66663v1.66666h2.0834v1.66667h-4.58336c-.11051 0-.21649.0439-.29463.12204s-.12204.18412-.12204.29463c0 .1105.0439.21649.12204.29463s.18412.12203.29463.12203h3.33336c.5525 0 1.0824.2195 1.4731.6102s.6102.9206.6102 1.4731c0 .5526-.2195 1.0825-.6102 1.4732s-.9206.6102-1.4731.6102h-.8334v1.6666h-1.66663v-1.6666h-2.08333z" class="fill-current transition-colors"></path></svg>