<svg width="20" height="20" xmlns="http://www.w3.org/2000/svg" class="w-5 h-5" role="img" fill="none">
  <path id="svg_1" class="fill-current transition-colors" d="m10.25811,9.26379l-8.40665,-0.06485l-0.03243,1.56941l8.50846,0.03243l0.06485,2.46757l3.0642,-3.13881l-3.16147,-3.52788l-0.03697,2.66213zm-6.89235,5.73601l2.25667,0c0.96224,0.8487 2.14891,1.4016 3.41761,1.5925c1.26869,0.1909 2.56549,0.0117 3.73489,-0.5162s2.1616,-1.382 2.8576,-2.4597c0.6959,-1.0778 1.0662,-2.3336 1.0662,-3.61656c0,-1.28298 -0.3703,-2.53872 -1.0662,-3.61651c-0.696,-1.0778 -1.6882,-1.93187 -2.8576,-2.45974s-2.4662,-0.70711 -3.73489,-0.5162c-1.2687,0.1909 -2.45537,0.74384 -3.41761,1.59245l-2.25667,0c0.77555,-1.03569 1.78195,-1.87624 2.93923,-2.45488s2.43356,-0.87943 3.72744,-0.87845c4.6025,0 8.3333,3.73083 8.3333,8.33333c0,4.60246 -3.7308,8.33336 -8.3333,8.33336c-1.29388,0.0009 -2.57016,-0.2998 -3.72744,-0.8785c-1.15728,-0.5786 -2.16368,-1.4192 -2.93923,-2.4549z"/>
</svg>