<svg fill="red" height="20" viewBox="0 0 20 20" width="20" xmlns="http://www.w3.org/2000/svg" role="img" class="w-5 h-5"><path d="m4.16667 9.16651h6.66663v1.66669h-6.66663v2.5l-4.16667-3.33336 4.16667-3.33333zm-.83334 5.83329h2.25667c.96224.8487 2.14891 1.4016 3.41761 1.5925 1.26869.1909 2.56549.0117 3.73489-.5162s2.1616-1.382 2.8576-2.4597c.6959-1.0778 1.0662-2.3336 1.0662-3.61656 0-1.28298-.3703-2.53872-1.0662-3.61651-.696-1.0778-1.6882-1.93187-2.8576-2.45974s-2.4662-.70711-3.73489-.5162c-1.2687.1909-2.45537.74384-3.41761 1.59245h-2.25667c.77555-1.03569 1.78195-1.87624 2.93923-2.45488s2.43356-.87943 3.72744-.87845c4.6025 0 8.3333 3.73083 8.3333 8.33333 0 4.60246-3.7308 8.33336-8.3333 8.33336-1.29388.0009-2.57016-.2998-3.72744-.8785-1.15728-.5786-2.16368-1.4192-2.93923-2.4549z" class="fill-current transition-colors"></path></svg>