<svg fill="none" viewBox="0 0 20 20" xmlns="http://www.w3.org/2000/svg" role="img" class="w-5 h-5"><path d="m1.84381 11.7168c-.23966-1.1319-.23966-2.30144 0-3.43334.925.10833 1.73333-.1975 1.99666-.83417.26417-.6375-.09-1.425-.82166-2.0025.63086-.96972 1.45777-1.79663 2.4275-2.4275.57666.73084 1.365 1.08584 2.0025.82167s.94333-1.07167.83416-1.99667c1.1319-.23965 2.30143-.23965 3.43333 0-.1083.925.1975 1.73334.8342 1.99667.6375.26417 1.425-.09 2.0025-.82167.9697.63087 1.7966 1.45778 2.4275 2.4275-.7309.57667-1.0859 1.365-.8217 2.0025s1.0717.94334 1.9967.83417c.2396 1.1319.2396 2.30144 0 3.43334-.925-.1083-1.7334.1975-1.9967.8342-.2642.6375.09 1.425.8217 2.0025-.6309.9697-1.4578 1.7966-2.4275 2.4275-.5767-.7309-1.365-1.0859-2.0025-.8217s-.9434 1.0717-.8342 1.9967c-1.1319.2396-2.30143.2396-3.43333 0 .10834-.925-.1975-1.7334-.83416-1.9967-.6375-.2642-1.425.09-2.0025.8217-.96973-.6309-1.79664-1.4578-2.4275-2.4275.73083-.5767 1.08583-1.365.82166-2.0025-.26416-.6375-1.07166-.9434-1.99666-.8342zm1.48916-1.5417c.91667.2542 1.6725.835 2.0475 1.7384.37417.9041.25 1.85-.21833 2.6766.08.085.1625.1675.2475.2475.8275-.4683 1.7725-.5916 2.67667-.2183.90333.375 1.48416 1.1308 1.73833 2.0475.11667.0033.23336.0033.34996 0 .2542-.9167.835-1.6725 1.7384-2.0475.9041-.3742 1.85-.25 2.6766.2183.085-.08.1675-.1625.2475-.2475-.4683-.8275-.5916-1.7725-.2183-2.6766.375-.9034 1.1308-1.4842 2.0475-1.7384.0033-.1166.0033-.23331 0-.34997-.9167-.25417-1.6725-.835-2.0475-1.73834-.3742-.90416-.25-1.85.2183-2.67666-.0803-.08467-.1628-.1672-.2475-.2475-.8275.46833-1.7725.59166-2.6766.21833-.9034-.375-1.4842-1.13083-1.7384-2.0475-.1166-.00309-.23331-.00309-.34996 0-.25417.91667-.835 1.6725-1.73833 2.0475-.90417.37417-1.85.25-2.67667-.21833-.085.08-.1675.1625-.2475.2475.46833.8275.59167 1.7725.21833 2.67666-.375.90334-1.13083 1.48417-2.0475 1.73834-.00333.11666-.00333.23337 0 .34997zm6.66667 2.325c-.66304 0-1.29893-.2634-1.76777-.7322s-.73223-1.1047-.73223-1.7678c0-.66301.26339-1.2989.73223-1.76774s1.10473-.73223 1.76777-.73223c.66306 0 1.29896.26339 1.76776.73223s.7322 1.10473.7322 1.76774c0 .6631-.2634 1.299-.7322 1.7678s-1.1047.7322-1.76776.7322zm0-1.6666c.22106 0 .43296-.0878.58926-.2441s.2441-.3683.2441-.5893c0-.22099-.0878-.43295-.2441-.58923s-.3682-.24408-.58926-.24408c-.22101 0-.43298.0878-.58926.24408s-.24407.36824-.24407.58923c0 .221.08779.433.24407.5893s.36825.2441.58926.2441z" class="fill-current transition-colors"></path></svg>